<svg width="136" height="24" viewBox="0 0 136 24" fill="none" xmlns="http://www.w3.org/2000/svg">
<path d="M10.2401 18.4661C9.01177 18.4814 7.79289 18.2536 6.65649 17.7962C5.5201 17.3389 4.48958 16.6614 3.62665 15.8044C2.73657 14.9838 2.03022 13.9908 1.5524 12.8885C1.07459 11.7861 0.835748 10.5984 0.851032 9.40079C0.836358 8.20324 1.07548 7.01576 1.55325 5.91348C2.03103 4.8112 2.73706 3.81814 3.62665 2.99715C4.48535 2.13128 5.51397 1.44473 6.65056 0.978866C7.78715 0.512998 9.00819 0.277452 10.2401 0.286415C11.4139 0.271089 12.5792 0.484606 13.668 0.914556C14.7569 1.34451 15.7478 1.98231 16.5829 2.7909L14.7993 4.5686C13.5779 3.4116 11.9386 2.77595 10.2401 2.80073C9.35905 2.79011 8.48536 2.95926 7.67457 3.29743C6.86378 3.63559 6.13362 4.13538 5.53051 4.76503C4.9037 5.37453 4.40923 6.10206 4.07687 6.90382C3.74451 7.70558 3.58114 8.56497 3.59659 9.43025C3.58924 10.2857 3.75655 11.1339 4.08867 11.9249C4.4208 12.716 4.91103 13.434 5.53051 14.0365C6.77138 15.2486 8.4459 15.9381 10.1976 15.9583C11.9494 15.9785 13.6399 15.3277 14.9095 14.1446C15.6955 13.3009 16.1778 12.228 16.2824 11.0901H10.2702V8.57578H18.7774C18.861 9.08215 18.8946 9.59525 18.8776 10.1079C18.9305 11.1691 18.7633 12.2297 18.3862 13.2257C18.009 14.2217 17.4296 15.1323 16.6831 15.9026C15.8532 16.7496 14.8505 17.4156 13.7403 17.8573C12.6302 18.299 11.4375 18.5064 10.2401 18.4661ZM30.0202 16.7964C28.8785 17.8691 27.3581 18.468 25.7766 18.468C24.1951 18.468 22.6747 17.8691 21.533 16.7964C20.9647 16.2563 20.5172 15.6064 20.2188 14.8879C19.9203 14.1693 19.7775 13.3978 19.7994 12.6222C19.7782 11.8468 19.9212 11.0755 20.2196 10.357C20.518 9.6385 20.9652 8.98851 21.533 8.4481C22.6759 7.37766 24.1958 6.7803 25.7766 6.7803C27.3574 6.7803 28.8773 7.37766 30.0202 8.4481C30.588 8.98851 31.0352 9.6385 31.3336 10.357C31.632 11.0755 31.7751 11.8468 31.7538 12.6222C31.7744 13.3985 31.6301 14.1704 31.3299 14.8891C31.0297 15.6077 30.5803 16.2572 30.0102 16.7964H30.0202ZM23.4068 15.1562C23.7105 15.4741 24.0775 15.7275 24.4851 15.9007C24.8928 16.0739 25.3323 16.1633 25.7766 16.1633C26.2209 16.1633 26.6605 16.0739 27.0681 15.9007C27.4758 15.7275 27.8428 15.4741 28.1464 15.1562C28.4776 14.8208 28.7368 14.4237 28.9089 13.9885C29.081 13.5533 29.1624 13.0888 29.1484 12.6222C29.1632 12.1541 29.0821 11.6879 28.9101 11.251C28.738 10.8141 28.4783 10.4154 28.1464 10.0785C27.8387 9.76385 27.4693 9.51349 27.0603 9.34246C26.6513 9.17143 26.2113 9.08326 25.7666 9.08326C25.3219 9.08326 24.8819 9.17143 24.4729 9.34246C24.0639 9.51349 23.6945 9.76385 23.3867 10.0785C23.0549 10.4154 22.7952 10.8141 22.6231 11.251C22.451 11.6879 22.37 12.1541 22.3847 12.6222C22.3721 13.0895 22.4551 13.5545 22.6289 13.9897C22.8027 14.4249 23.0638 14.8216 23.3968 15.1562H23.4068ZM43.0667 16.7964C41.925 17.8691 40.4046 18.468 38.8231 18.468C37.2415 18.468 35.7212 17.8691 34.5794 16.7964C34.0112 16.2563 33.5637 15.6064 33.2653 14.8878C32.9669 14.1693 32.8241 13.3978 32.846 12.6222C32.8247 11.8468 32.9678 11.0755 33.2661 10.357C33.5645 9.63852 34.0117 8.98852 34.5794 8.4481C35.7212 7.3754 37.2415 6.77651 38.8231 6.77651C40.4046 6.77651 41.925 7.3754 43.0667 8.4481C43.6345 8.98852 44.0817 9.63851 44.3801 10.357C44.6784 11.0755 44.8215 11.8468 44.8002 12.6222C44.8221 13.3978 44.6793 14.1693 44.3809 14.8878C44.0825 15.6064 43.635 16.2563 43.0667 16.7964ZM36.4533 15.1562C36.757 15.4741 37.124 15.7275 37.5316 15.9007C37.9392 16.0739 38.3788 16.1633 38.8231 16.1633C39.2674 16.1633 39.7069 16.0739 40.1146 15.9007C40.5222 15.7275 40.8892 15.4741 41.1929 15.1562C41.524 14.8208 41.7833 14.4237 41.9554 13.9886C42.1275 13.5534 42.2089 13.0888 42.195 12.6222C42.2097 12.1541 42.1286 11.6879 41.9565 11.251C41.7844 10.8141 41.5248 10.4154 41.1929 10.0785C40.8852 9.76386 40.5157 9.51352 40.1067 9.3425C39.6978 9.17148 39.2577 9.08331 38.8131 9.08331C38.3684 9.08331 37.9284 9.17148 37.5194 9.3425C37.1104 9.51352 36.741 9.76386 36.4333 10.0785C36.1014 10.4154 35.8417 10.8141 35.6696 11.251C35.4975 11.6879 35.4165 12.1541 35.4313 12.6222C35.4186 13.0895 35.5016 13.5545 35.6754 13.9897C35.8493 14.4249 36.1104 14.8216 36.4433 15.1562H36.4533ZM51.6441 23.7107C50.4431 23.7482 49.2653 23.3807 48.3074 22.6697C47.4568 22.0429 46.7869 21.2104 46.3634 20.2536L48.648 19.3205C48.8967 19.8923 49.2856 20.395 49.7803 20.7839C50.3098 21.2023 50.9743 21.4217 51.6541 21.4027C52.0852 21.4284 52.5169 21.3628 52.9198 21.2102C53.3227 21.0577 53.6874 20.8218 53.9889 20.5187C54.5926 19.805 54.8907 18.8897 54.8206 17.9652V17.1205H54.7304C54.3485 17.565 53.8663 17.9163 53.3219 18.1464C52.7775 18.3766 52.1859 18.4793 51.594 18.4464C50.8417 18.4486 50.0971 18.2979 49.4072 18.0038C48.7173 17.7096 48.0972 17.2784 47.5859 16.7375C47.0312 16.2008 46.5933 15.5594 46.2987 14.852C46.0042 14.1447 45.8592 13.3861 45.8724 12.6222C45.8586 11.8539 46.0032 11.0907 46.2976 10.3785C46.5921 9.66631 47.0303 9.01973 47.5859 8.47756C48.0959 7.93433 48.7156 7.501 49.4056 7.20511C50.0956 6.90921 50.8408 6.75722 51.594 6.75879C52.2314 6.7577 52.8611 6.89524 53.4377 7.16149C53.9366 7.37499 54.3814 7.69355 54.7405 8.09453H54.8306V7.16149H57.3156V17.6214C57.3811 18.4488 57.2735 19.2807 56.9996 20.0659C56.7256 20.8512 56.291 21.5735 55.7224 22.1884C55.1808 22.6963 54.5409 23.0926 53.8404 23.3541C53.14 23.6156 52.3932 23.7368 51.6441 23.7107ZM51.8245 16.1678C52.2524 16.177 52.6771 16.0938 53.0684 15.9241C53.4598 15.7543 53.8083 15.5022 54.0891 15.1857C54.7073 14.4912 55.0333 13.5925 55.0009 12.6714C55.038 11.7347 54.7123 10.8189 54.0891 10.1079C53.8087 9.79084 53.4604 9.53837 53.0689 9.36858C52.6774 9.1988 52.2525 9.11588 51.8245 9.12578C51.3849 9.11694 50.9485 9.19995 50.5442 9.3693C50.1399 9.53865 49.777 9.79045 49.4798 10.1079C48.8169 10.7934 48.4568 11.7075 48.4777 12.6517C48.4675 13.1148 48.5508 13.5754 48.7228 14.0069C48.8947 14.4384 49.152 14.8323 49.4798 15.166C49.7756 15.4866 50.1378 15.7417 50.542 15.9145C50.9463 16.0872 51.3835 16.1736 51.8245 16.1678ZM61.7346 0.944458V18.1125H59.1193V0.944458H61.7346ZM68.9092 18.4661C68.1259 18.4858 67.347 18.3468 66.6211 18.0578C65.8952 17.7688 65.238 17.336 64.6906 16.7866C64.1352 16.2411 63.6987 15.5907 63.4075 14.8749C63.1164 14.159 62.9768 13.3926 62.9971 12.6222C62.9675 11.85 63.0969 11.0798 63.3775 10.3576C63.6581 9.63536 64.0842 8.97593 64.6305 8.41863C65.1452 7.88676 65.7676 7.46613 66.4578 7.18369C67.1481 6.90124 67.8909 6.76321 68.6386 6.77844C69.3263 6.77133 70.0082 6.90166 70.6427 7.16149C71.2142 7.3876 71.7351 7.72126 72.1758 8.14363C72.5542 8.50169 72.8903 8.90033 73.1778 9.33204C73.4103 9.69653 73.6082 10.0812 73.769 10.4812L74.0396 11.149L66.0233 14.3803C66.2658 14.9263 66.6713 15.3874 67.1865 15.703C67.7016 16.0186 68.3022 16.1738 68.9092 16.1482C69.4997 16.1497 70.0806 16.0013 70.5951 15.7173C71.1096 15.4333 71.5403 15.0234 71.8451 14.5276L73.8492 15.8535C73.3378 16.5707 72.6833 17.1788 71.9253 17.641C71.0239 18.1993 69.9752 18.4861 68.9092 18.4661ZM65.5624 12.4455L70.8932 10.2749C70.729 9.89218 70.4352 9.57657 70.0615 9.38115C69.643 9.14951 69.1693 9.03088 68.6887 9.03739C67.8732 9.05809 67.099 9.39339 66.5343 9.97044C66.1964 10.2874 65.9341 10.6736 65.766 11.1014C65.598 11.5293 65.5285 11.9882 65.5624 12.4455Z" fill="#CCC9C9"/>
<path d="M87.7374 18.466C86.6251 18.4848 85.5205 18.2831 84.4897 17.8731C83.459 17.463 82.5234 16.8531 81.7391 16.0798C80.9549 15.3065 80.3381 14.3859 79.9259 13.3731C79.5137 12.3604 79.3145 11.2765 79.3404 10.1864C79.3145 9.0964 79.5137 8.01248 79.9259 6.99975C80.3381 5.98703 80.9549 5.06639 81.7391 4.29311C82.5234 3.51983 83.459 2.90986 84.4897 2.49981C85.5205 2.08975 86.6251 1.88808 87.7374 1.9069C88.8631 1.8724 89.9823 2.08768 91.0112 2.53667C92.0402 2.98566 92.9523 3.65675 93.6795 4.49979L92.2365 5.8748C91.7027 5.21665 91.0179 4.69128 90.2378 4.34143C89.4578 3.99157 88.6045 3.82709 87.7474 3.86138C86.9223 3.84316 86.1019 3.98864 85.3357 4.28907C84.5694 4.5895 83.873 5.03868 83.2883 5.60962C82.6805 6.20875 82.2056 6.92461 81.8935 7.71224C81.5814 8.49986 81.4388 9.34224 81.4747 10.1864C81.4388 11.0307 81.5814 11.873 81.8935 12.6607C82.2056 13.4483 82.6805 14.1641 83.2883 14.7633C83.873 15.3342 84.5694 15.7834 85.3357 16.0838C86.1019 16.3842 86.9223 16.5297 87.7474 16.5115C88.705 16.522 89.6527 16.3209 90.5201 15.923C91.3875 15.5251 92.1523 14.9407 92.7575 14.2133L94.2005 15.6276C93.445 16.5131 92.4965 17.2212 91.4249 17.6999C90.2697 18.2226 89.0096 18.4844 87.7374 18.466Z" fill="#CCC9C9"/>
<path d="M98.0784 18.1122H96.0042V2.25049H98.0784V18.1122Z" fill="#CCC9C9"/>
<path d="M101.465 8.56579C102.552 7.50782 104.022 6.91406 105.554 6.91406C107.085 6.91406 108.555 7.50782 109.642 8.56579C110.173 9.11582 110.589 9.76344 110.864 10.4714C111.139 11.1793 111.269 11.9336 111.245 12.6908C111.269 13.4481 111.139 14.2023 110.864 14.9103C110.589 15.6182 110.173 16.2658 109.642 16.8159C108.555 17.8738 107.085 18.4676 105.554 18.4676C104.022 18.4676 102.552 17.8738 101.465 16.8159C100.934 16.2658 100.519 15.6182 100.243 14.9103C99.9682 14.2023 99.8386 13.4481 99.8621 12.6908C99.8386 11.9336 99.9682 11.1793 100.243 10.4714C100.519 9.76344 100.934 9.11582 101.465 8.56579ZM103.008 15.5391C103.335 15.8776 103.729 16.1473 104.166 16.3315C104.602 16.5158 105.073 16.6109 105.548 16.6109C106.024 16.6109 106.495 16.5158 106.931 16.3315C107.368 16.1473 107.762 15.8776 108.089 15.5391C108.451 15.1578 108.733 14.7096 108.917 14.2206C109.101 13.7316 109.184 13.2116 109.161 12.6908C109.184 12.1701 109.101 11.6501 108.917 11.1611C108.733 10.6721 108.451 10.2239 108.089 9.84259C107.762 9.50405 107.368 9.2344 106.931 9.05011C106.495 8.86582 106.024 8.77078 105.548 8.77078C105.073 8.77078 104.602 8.86582 104.166 9.05011C103.729 9.2344 103.335 9.50405 103.008 9.84259C102.646 10.2239 102.364 10.6721 102.18 11.1611C101.996 11.6501 101.913 12.1701 101.936 12.6908C101.916 13.2106 102.001 13.7292 102.187 14.2164C102.373 14.7037 102.655 15.1499 103.018 15.5293L103.008 15.5391Z" fill="#CCC9C9"/>
<path d="M122.738 18.1125H120.734V16.6098H120.675C120.318 17.1805 119.813 17.6482 119.212 17.9652C118.588 18.3197 117.879 18.5061 117.158 18.5053C116.572 18.5446 115.985 18.4537 115.44 18.2394C114.895 18.0252 114.407 17.693 114.011 17.2678C113.252 16.3268 112.871 15.1459 112.939 13.9482V7.26953H115.013V13.575C115.013 15.5982 115.925 16.6098 117.749 16.6098C118.154 16.6222 118.556 16.5395 118.922 16.3687C119.288 16.1978 119.607 15.9438 119.853 15.6276C120.391 14.9598 120.677 14.1309 120.665 13.2803V7.26953H122.739L122.738 18.1125Z" fill="#CCC9C9"/>
<path d="M129.783 18.4658C129.079 18.4681 128.383 18.3209 127.743 18.0344C127.103 17.7478 126.534 17.3288 126.075 16.806C125.036 15.6814 124.48 14.2073 124.522 12.6908C124.48 11.1742 125.036 9.70018 126.075 8.57555C126.534 8.05278 127.103 7.6337 127.743 7.34716C128.383 7.06062 129.079 6.91343 129.783 6.91571C130.571 6.90351 131.35 7.08589 132.047 7.44607C132.66 7.7484 133.179 8.20627 133.55 8.77199H133.64L133.55 7.26929V2.25049H135.625V18.1122H133.62V16.6096H133.53C133.159 17.1753 132.64 17.6331 132.027 17.9355C131.336 18.2924 130.564 18.4747 129.783 18.4658ZM130.123 16.6096C130.592 16.6162 131.057 16.5251 131.487 16.3422C131.917 16.1594 132.303 15.8889 132.618 15.5488C133.323 14.7624 133.683 13.7356 133.62 12.6908C133.683 11.646 133.323 10.6191 132.618 9.83271C132.301 9.49077 131.914 9.21758 131.483 9.03065C131.051 8.84372 130.585 8.74717 130.113 8.74717C129.642 8.74717 129.175 8.84372 128.744 9.03065C128.312 9.21758 127.926 9.49077 127.608 9.83271C127.258 10.2195 126.99 10.6702 126.818 11.1589C126.646 11.6477 126.574 12.1649 126.606 12.6809C126.574 13.197 126.646 13.7142 126.818 14.203C126.99 14.6917 127.258 15.1424 127.608 15.5292C127.924 15.8754 128.312 16.151 128.746 16.3374C129.18 16.5238 129.65 16.6166 130.123 16.6096Z" fill="#CCC9C9"/>
</svg>
